<?xml version="1.0" standalone="no"?>
<!DOCTYPE svg PUBLIC "-//W3C//DTD SVG 20010904//EN"
 "http://www.w3.org/TR/2001/REC-SVG-20010904/DTD/svg10.dtd">
<svg version="1.0" xmlns="http://www.w3.org/2000/svg"
 width="1024.000000pt" height="1024.000000pt" viewBox="0 0 1024.000000 1024.000000"
 preserveAspectRatio="xMidYMid meet">

<defs>
    <linearGradient id="modernGradient" x1="0%" y1="0%" x2="100%" y2="0%">
        <stop offset="0%" style="stop-color:#0EA5E9;stop-opacity:1" />
        <stop offset="100%" style="stop-color:#0284C7;stop-opacity:1" />
    </linearGradient>
</defs>

<g transform="translate(0.000000,1024.000000) scale(0.100000,-0.100000)"
fill="url(#modernGradient)" stroke="none">
<path d="M1825 6749 c-23 -5 -58 -23 -78 -40 -68 -56 -71 -69 -77 -309 l-5
-215 -150 -5 c-171 -6 -188 -12 -253 -85 -30 -34 -44 -61 -52 -100 -7 -35 -10
-212 -8 -537 l3 -485 30 -48 c59 -95 151 -131 315 -123 84 4 83 7 39 -119 -90
-261 -242 -509 -416 -680 -62 -61 -113 -120 -113 -130 0 -29 15 -44 51 -52 41
-9 2089 -5 2139 4 57 11 130 56 166 104 61 79 64 104 64 506 l0 362 113 6 c63
3 129 12 148 20 49 20 97 63 122 111 22 41 22 44 22 556 0 572 3 542 -69 618
-57 61 -76 67 -246 72 l-155 5 -5 220 c-3 141 -9 227 -17 240 -18 31 -75 83
-108 97 -24 10 -176 13 -725 15 -400 1 -712 -3 -735 -8z m1327 -266 c3 -10 4
-35 4 -56 l-2 -38 -539 0 c-297 -1 -577 0 -622 0 l-83 1 0 55 0 55 619 0 c581
0 619 -1 623 -17z m-3 -297 c7 -8 11 -34 9 -58 l-3 -43 -614 -3 c-485 -2 -616
0 -623 10 -12 20 -9 83 4 96 9 9 159 12 614 12 509 0 603 -2 613 -14z m-562
-636 c-67 -73 -82 -115 -152 -420 -104 -448 -188 -623 -400 -835 -112 -113
-226 -193 -369 -261 -102 -48 -282 -99 -379 -106 l-57 -5 67 66 c190 188 332
416 418 675 56 166 74 276 81 486 3 108 11 206 20 236 24 90 88 156 183 190
26 10 116 13 330 14 l293 0 -35 -40z m858 -27 c-34 -66 -47 -114 -131 -488
-97 -428 -184 -630 -348 -802 -94 -100 -172 -157 -292 -215 -163 -78 -230 -89
-559 -94 l-280 -4 112 29 c348 90 612 305 767 625 80 165 123 307 201 656 35
160 70 257 110 313 l35 47 210 0 209 0 -34 -67z"/>
<path d="M5328 5605 c-33 -18 -52 -72 -39 -107 13 -35 58 -68 93 -68 96 0 143
97 79 161 -34 33 -87 39 -133 14z"/>
<path d="M4230 5166 l0 -426 90 0 90 0 0 149 0 149 123 4 c140 4 181 19 239
88 43 50 58 98 58 186 0 85 -29 154 -85 203 -69 61 -89 65 -312 69 l-203 4 0
-426z m353 258 c62 -29 84 -102 52 -164 -23 -44 -63 -60 -150 -60 l-75 0 0
120 0 120 70 0 c43 0 82 -6 103 -16z"/>
<path d="M6600 5165 l0 -425 90 0 90 0 0 150 0 150 104 0 c155 0 227 33 283
128 25 42 28 56 28 142 0 112 -18 155 -87 214 -65 56 -114 66 -325 66 l-183 0
0 -425z m356 259 c59 -28 81 -102 49 -164 -23 -44 -63 -60 -150 -60 l-75 0 0
120 0 120 71 0 c45 0 84 -6 105 -16z"/>
<path d="M6293 5517 l-63 -10 0 -77 c0 -77 0 -77 -25 -72 -13 2 -36 1 -50 -2
-25 -6 -26 -9 -23 -69 l3 -62 48 -3 47 -3 0 -162 c0 -89 5 -179 10 -199 12
-43 63 -91 116 -108 45 -15 161 -8 178 11 8 9 11 35 8 71 l-4 56 -53 -5 c-78
-8 -84 5 -87 189 l-3 147 60 3 60 3 3 62 c3 61 3 61 -27 68 -17 4 -45 5 -62 3
l-31 -3 -1 85 c-2 98 2 95 -104 77z"/>
<path d="M5846 5359 c-31 -5 -62 -18 -87 -38 l-38 -31 -3 28 c-3 26 -5 27 -75
30 l-72 3 -6 -33 c-3 -18 -4 -154 -3 -303 l3 -270 83 -3 82 -3 0 195 c0 130 4
204 12 221 23 50 101 71 147 39 44 -31 51 -69 51 -269 l0 -185 80 0 80 0 0
213 c0 162 -4 226 -15 265 -16 52 -52 105 -86 123 -32 17 -102 25 -153 18z"/>
<path d="M7824 5352 c-70 -25 -99 -45 -134 -94 -40 -55 -60 -126 -60 -213 0
-141 54 -241 157 -292 48 -23 70 -28 133 -27 119 0 200 45 257 142 32 54 24
62 -61 62 -50 0 -63 -4 -91 -29 -81 -71 -207 -37 -231 61 l-6 28 208 2 209 3
-3 70 c-2 39 -10 92 -19 119 -19 61 -83 133 -140 158 -64 28 -157 33 -219 10z
m155 -136 c28 -15 51 -53 51 -86 0 -19 -8 -20 -120 -20 -81 0 -120 4 -120 11
0 25 32 76 58 91 33 21 94 23 131 4z"/>
<path d="M8393 5356 c-91 -30 -143 -95 -143 -181 0 -105 71 -162 250 -200 44
-9 70 -32 70 -60 0 -29 -27 -52 -70 -59 -43 -8 -80 10 -98 47 -13 26 -16 27
-87 27 l-74 0 5 -32 c11 -60 55 -120 109 -147 69 -36 197 -37 268 -2 122 60
153 211 60 298 -24 23 -59 40 -121 59 -131 38 -152 49 -152 78 0 33 35 56 83
56 29 0 46 -7 69 -30 27 -27 36 -30 94 -30 45 0 64 4 64 13 -1 23 -37 92 -61
114 -56 51 -186 75 -266 49z"/>
<path d="M8919 5356 c-63 -17 -104 -48 -128 -99 -37 -77 -22 -159 38 -209 17
-15 64 -37 104 -49 155 -46 166 -53 153 -102 -16 -64 -166 -52 -166 15 0 16
-9 18 -75 18 l-75 0 0 -31 c0 -69 69 -144 156 -168 165 -46 334 49 334 189 0
98 -52 148 -195 191 -52 16 -104 33 -115 39 -27 14 -26 55 2 74 42 30 135 14
145 -24 5 -18 14 -20 74 -20 64 0 69 2 69 21 0 33 -38 92 -76 118 -39 27 -122
51 -169 50 -16 0 -51 -6 -76 -13z"/>
<path d="M5124 5341 c-23 -10 -51 -29 -63 -42 l-21 -23 0 38 0 37 -77 -3 -78
-3 0 -300 0 -300 83 -3 82 -3 0 188 c0 170 2 191 20 221 25 41 61 55 128 50
l53 -5 -3 81 -3 81 -40 3 c-23 1 -57 -6 -81 -17z"/>
<path d="M7484 5341 c-23 -10 -48 -29 -57 -41 -15 -22 -16 -22 -19 11 l-3 34
-77 3 -78 3 0 -306 0 -306 83 3 82 3 5 198 5 199 34 30 c32 28 38 30 98 26
l64 -4 -3 81 -3 80 -45 3 c-28 1 -61 -5 -86 -17z"/>
<path d="M5305 5338 c-3 -7 -4 -144 -3 -303 l3 -290 80 0 80 0 0 300 0 300
-78 3 c-56 2 -79 -1 -82 -10z"/>
</g>
</svg>
